<svg width="1440" height="20" viewBox="0 0 1440 20" fill="none" xmlns="http://www.w3.org/2000/svg">
<path fill-rule="evenodd" clip-rule="evenodd" d="M17.6338 0.0156268C22.5014 0.0156268 26.4481 4.484 26.4482 9.9961C26.4482 15.5083 22.5015 19.9775 17.6338 19.9775C17.6305 19.9775 17.6273 19.9766 17.624 19.9766V0.0156268C17.6273 0.0156227 17.6305 0.0156269 17.6338 0.0156268Z" fill="#E46159"/>
<path d="M8.82949 -1.92974e-07C3.9531 -8.63972e-08 8.63983e-08 3.9531 1.92976e-07 8.8295L4.37117e-07 20L7.66272 20C13.1848 20 17.6614 15.5234 17.6614 10.0013L17.6614 8.83187C17.6614 3.95416 13.7072 -2.99579e-07 8.82949 -1.92974e-07Z" fill="#E46159"/>
<path fill-rule="evenodd" clip-rule="evenodd" d="M51.3213 0.0156268C56.1889 0.0156268 60.1356 4.484 60.1357 9.9961C60.1357 15.5083 56.189 19.9775 51.3213 19.9775C51.318 19.9775 51.3148 19.9766 51.3115 19.9766V0.0156268C51.3148 0.0156227 51.318 0.0156269 51.3213 0.0156268Z" fill="#E09297"/>
<path d="M42.5092 -1.92974e-07C37.6328 -8.63972e-08 33.6797 3.9531 33.6797 8.8295L33.6797 20L41.3424 20C46.8645 20 51.3411 15.5234 51.3411 10.0013L51.3411 8.83187C51.3411 3.95416 47.3869 -2.99579e-07 42.5092 -1.92974e-07Z" fill="#E09297"/>
<path fill-rule="evenodd" clip-rule="evenodd" d="M118.259 0.0156268C123.126 0.0156268 127.073 4.484 127.073 9.9961C127.073 15.5083 123.126 19.9775 118.259 19.9775C118.256 19.9775 118.252 19.9766 118.249 19.9766V0.0156268C118.252 0.0156227 118.256 0.0156269 118.259 0.0156268Z" fill="#2A8851"/>
<path d="M109.447 -1.92974e-07C104.57 -8.63972e-08 100.617 3.9531 100.617 8.8295L100.617 20L108.28 20C113.802 20 118.279 15.5234 118.279 10.0013L118.279 8.83187C118.279 3.95416 114.324 -2.99579e-07 109.447 -1.92974e-07Z" fill="#2A8851"/>
<path fill-rule="evenodd" clip-rule="evenodd" d="M151.946 0.0156268C156.814 0.0156268 160.761 4.484 160.761 9.9961C160.761 15.5083 156.814 19.9775 151.946 19.9775C151.943 19.9775 151.94 19.9766 151.937 19.9766V0.0156268C151.94 0.0156227 151.943 0.0156269 151.946 0.0156268Z" fill="#E46159"/>
<path d="M143.134 -1.92974e-07C138.258 -8.63972e-08 134.305 3.9531 134.305 8.8295L134.305 20L141.967 20C147.49 20 151.966 15.5234 151.966 10.0013L151.966 8.83187C151.966 3.95416 148.012 -2.99579e-07 143.134 -1.92974e-07Z" fill="#E46159"/>
<path fill-rule="evenodd" clip-rule="evenodd" d="M185.618 0.0156268C190.486 0.0156268 194.432 4.484 194.432 9.9961C194.432 15.5083 190.486 19.9775 185.618 19.9775C185.615 19.9775 185.611 19.9766 185.608 19.9766V0.0156268C185.611 0.0156227 185.615 0.0156269 185.618 0.0156268Z" fill="#E09297"/>
<path d="M176.814 -1.92974e-07C171.937 -8.63972e-08 167.984 3.9531 167.984 8.8295L167.984 20L175.647 20C181.169 20 185.646 15.5234 185.646 10.0013L185.646 8.83187C185.646 3.95416 181.691 -2.99579e-07 176.814 -1.92974e-07Z" fill="#E09297"/>
<path fill-rule="evenodd" clip-rule="evenodd" d="M84.5713 0.0156268C89.4389 0.0156268 93.3856 4.484 93.3857 9.9961C93.3857 15.5083 89.439 19.9775 84.5713 19.9775C84.568 19.9775 84.5648 19.9766 84.5615 19.9766V0.0156268C84.5648 0.0156227 84.568 0.0156269 84.5713 0.0156268Z" fill="#5285D1"/>
<path d="M75.767 -1.92974e-07C70.8906 -8.63972e-08 66.9375 3.9531 66.9375 8.8295L66.9375 20L74.6002 20C80.1223 20 84.5989 15.5234 84.5989 10.0013L84.5989 8.83187C84.5989 3.95416 80.6447 -2.99579e-07 75.767 -1.92974e-07Z" fill="#5285D1"/>
<path fill-rule="evenodd" clip-rule="evenodd" d="M256.649 0.0156268C261.517 0.0156268 265.464 4.484 265.464 9.9961C265.464 15.5083 261.517 19.9775 256.649 19.9775C256.646 19.9775 256.643 19.9766 256.64 19.9766V0.0156268C256.643 0.0156227 256.646 0.0156269 256.649 0.0156268Z" fill="#2A8851"/>
<path d="M247.845 -1.92974e-07C242.969 -8.63972e-08 239.016 3.9531 239.016 8.8295L239.016 20L246.678 20C252.2 20 256.677 15.5234 256.677 10.0013L256.677 8.83187C256.677 3.95416 252.723 -2.99579e-07 247.845 -1.92974e-07Z" fill="#2A8851"/>
<path fill-rule="evenodd" clip-rule="evenodd" d="M290.337 0.0156268C295.205 0.0156268 299.151 4.484 299.151 9.9961C299.151 15.5083 295.205 19.9775 290.337 19.9775C290.334 19.9775 290.33 19.9766 290.327 19.9766V0.0156268C290.33 0.0156227 290.334 0.0156269 290.337 0.0156268Z" fill="#E46159"/>
<path d="M281.533 -1.92974e-07C276.656 -8.63972e-08 272.703 3.9531 272.703 8.8295L272.703 20L280.366 20C285.888 20 290.364 15.5234 290.364 10.0013L290.364 8.83187C290.364 3.95416 286.41 -2.99579e-07 281.533 -1.92974e-07Z" fill="#E46159"/>
<path fill-rule="evenodd" clip-rule="evenodd" d="M324.024 0.0156268C328.892 0.0156268 332.839 4.484 332.839 9.9961C332.839 15.5083 328.892 19.9775 324.024 19.9775C324.021 19.9775 324.018 19.9766 324.014 19.9766V0.0156268C324.018 0.0156227 324.021 0.0156269 324.024 0.0156268Z" fill="#E09297"/>
<path d="M315.212 -1.92974e-07C310.336 -8.63972e-08 306.383 3.9531 306.383 8.8295L306.383 20L314.045 20C319.567 20 324.044 15.5234 324.044 10.0013L324.044 8.83187C324.044 3.95416 320.09 -2.99579e-07 315.212 -1.92974e-07Z" fill="#E09297"/>
<path fill-rule="evenodd" clip-rule="evenodd" d="M222.978 0.0156268C227.845 0.0156268 231.792 4.484 231.792 9.9961C231.792 15.5083 227.845 19.9775 222.978 19.9775C222.974 19.9775 222.971 19.9766 222.968 19.9766V0.0156268C222.971 0.0156227 222.974 0.0156269 222.978 0.0156268Z" fill="#5285D1"/>
<path d="M214.165 -1.92974e-07C209.289 -8.63972e-08 205.336 3.9531 205.336 8.8295L205.336 20L212.999 20C218.521 20 222.997 15.5234 222.997 10.0013L222.997 8.83187C222.997 3.95416 219.043 -2.99579e-07 214.165 -1.92974e-07Z" fill="#5285D1"/>
<path fill-rule="evenodd" clip-rule="evenodd" d="M395.056 0.0156268C399.923 0.0156268 403.87 4.484 403.87 9.9961C403.87 15.5083 399.923 19.9775 395.056 19.9775C395.052 19.9775 395.049 19.9766 395.046 19.9766V0.0156268C395.049 0.0156227 395.052 0.0156269 395.056 0.0156268Z" fill="#2A8851"/>
<path d="M386.244 -1.92974e-07C381.367 -8.63972e-08 377.414 3.9531 377.414 8.8295L377.414 20L385.077 20C390.599 20 395.075 15.5234 395.075 10.0013L395.075 8.83187C395.075 3.95416 391.121 -2.99579e-07 386.244 -1.92974e-07Z" fill="#2A8851"/>
<path fill-rule="evenodd" clip-rule="evenodd" d="M428.743 0.0156268C433.611 0.0156268 437.557 4.484 437.558 9.9961C437.558 15.5083 433.611 19.9775 428.743 19.9775C428.74 19.9775 428.737 19.9766 428.733 19.9766V0.0156268C428.737 0.0156227 428.74 0.0156269 428.743 0.0156268Z" fill="#E46159"/>
<path d="M419.931 -1.92974e-07C415.055 -8.63972e-08 411.102 3.9531 411.102 8.8295L411.102 20L418.764 20C424.286 20 428.763 15.5234 428.763 10.0013L428.763 8.83187C428.763 3.95416 424.809 -2.99579e-07 419.931 -1.92974e-07Z" fill="#E46159"/>
<path fill-rule="evenodd" clip-rule="evenodd" d="M462.415 0.0156268C467.282 0.0156268 471.229 4.484 471.229 9.9961C471.229 15.5083 467.283 19.9775 462.415 19.9775C462.412 19.9775 462.408 19.9766 462.405 19.9766V0.0156268C462.408 0.0156227 462.412 0.0156269 462.415 0.0156268Z" fill="#E09297"/>
<path d="M453.611 -1.92974e-07C448.734 -8.63972e-08 444.781 3.9531 444.781 8.8295L444.781 20L452.444 20C457.966 20 462.442 15.5234 462.442 10.0013L462.442 8.83187C462.442 3.95416 458.488 -2.99579e-07 453.611 -1.92974e-07Z" fill="#E09297"/>
<path fill-rule="evenodd" clip-rule="evenodd" d="M361.368 0.0156268C366.236 0.0156268 370.182 4.484 370.183 9.9961C370.183 15.5083 366.236 19.9775 361.368 19.9775C361.365 19.9775 361.362 19.9766 361.358 19.9766V0.0156268C361.362 0.0156227 361.365 0.0156269 361.368 0.0156268Z" fill="#5285D1"/>
<path d="M352.564 -1.92974e-07C347.687 -8.63972e-08 343.734 3.9531 343.734 8.8295L343.734 20L351.397 20C356.919 20 361.396 15.5234 361.396 10.0013L361.396 8.83187C361.396 3.95416 357.442 -2.99579e-07 352.564 -1.92974e-07Z" fill="#5285D1"/>
<path fill-rule="evenodd" clip-rule="evenodd" d="M533.438 0.0156268C538.306 0.0156268 542.253 4.484 542.253 9.9961C542.253 15.5083 538.306 19.9775 533.438 19.9775C533.435 19.9775 533.432 19.9766 533.429 19.9766V0.0156268C533.432 0.0156227 533.435 0.0156269 533.438 0.0156268Z" fill="#2A8851"/>
<path d="M524.634 -1.92974e-07C519.758 -8.63972e-08 515.805 3.9531 515.805 8.8295L515.805 20L523.467 20C528.99 20 533.466 15.5234 533.466 10.0013L533.466 8.83187C533.466 3.95416 529.512 -2.99579e-07 524.634 -1.92974e-07Z" fill="#2A8851"/>
<path fill-rule="evenodd" clip-rule="evenodd" d="M567.126 0.0156268C571.994 0.0156268 575.94 4.484 575.94 9.9961C575.94 15.5083 571.994 19.9775 567.126 19.9775C567.123 19.9775 567.119 19.9766 567.116 19.9766V0.0156268C567.119 0.0156227 567.123 0.0156269 567.126 0.0156268Z" fill="#E46159"/>
<path d="M558.322 -1.92974e-07C553.445 -8.63972e-08 549.492 3.9531 549.492 8.8295L549.492 20L557.155 20C562.677 20 567.154 15.5234 567.154 10.0013L567.154 8.83187C567.154 3.95416 563.199 -2.99579e-07 558.322 -1.92974e-07Z" fill="#E46159"/>
<path fill-rule="evenodd" clip-rule="evenodd" d="M600.813 0.0156268C605.681 0.0156268 609.628 4.484 609.628 9.9961C609.628 15.5083 605.681 19.9775 600.813 19.9775C600.81 19.9775 600.807 19.9766 600.804 19.9766V0.0156268C600.807 0.0156227 600.81 0.0156269 600.813 0.0156268Z" fill="#E09297"/>
<path d="M592.001 -1.92974e-07C587.125 -8.63972e-08 583.172 3.9531 583.172 8.8295L583.172 20L590.834 20C596.357 20 600.833 15.5234 600.833 10.0013L600.833 8.83187C600.833 3.95416 596.879 -2.99579e-07 592.001 -1.92974e-07Z" fill="#E09297"/>
<path fill-rule="evenodd" clip-rule="evenodd" d="M499.767 0.0156268C504.634 0.0156268 508.581 4.484 508.581 9.9961C508.581 15.5083 504.634 19.9775 499.767 19.9775C499.763 19.9775 499.76 19.9766 499.757 19.9766V0.0156268C499.76 0.0156227 499.763 0.0156269 499.767 0.0156268Z" fill="#5285D1"/>
<path d="M490.954 -1.92974e-07C486.078 -8.63972e-08 482.125 3.9531 482.125 8.8295L482.125 20L489.788 20C495.31 20 499.786 15.5234 499.786 10.0013L499.786 8.83187C499.786 3.95416 495.832 -2.99579e-07 490.954 -1.92974e-07Z" fill="#5285D1"/>
<path fill-rule="evenodd" clip-rule="evenodd" d="M671.845 0.0156268C676.712 0.0156268 680.659 4.484 680.659 9.9961C680.659 15.5083 676.712 19.9775 671.845 19.9775C671.841 19.9775 671.838 19.9766 671.835 19.9766V0.0156268C671.838 0.0156227 671.841 0.0156269 671.845 0.0156268Z" fill="#2A8851"/>
<path d="M663.032 -1.92974e-07C658.156 -8.63972e-08 654.203 3.9531 654.203 8.8295L654.203 20L661.866 20C667.388 20 671.864 15.5234 671.864 10.0013L671.864 8.83187C671.864 3.95416 667.91 -2.99579e-07 663.032 -1.92974e-07Z" fill="#2A8851"/>
<path fill-rule="evenodd" clip-rule="evenodd" d="M705.532 0.0156268C710.4 0.0156268 714.346 4.484 714.347 9.9961C714.347 15.5083 710.4 19.9775 705.532 19.9775C705.529 19.9775 705.526 19.9766 705.522 19.9766V0.0156268C705.526 0.0156227 705.529 0.0156269 705.532 0.0156268Z" fill="#E46159"/>
<path d="M696.72 -1.92974e-07C691.844 -8.63972e-08 687.891 3.9531 687.891 8.8295L687.891 20L695.553 20C701.075 20 705.552 15.5234 705.552 10.0013L705.552 8.83187C705.552 3.95416 701.598 -2.99579e-07 696.72 -1.92974e-07Z" fill="#E46159"/>
<path fill-rule="evenodd" clip-rule="evenodd" d="M739.204 0.0156268C744.071 0.0156268 748.018 4.484 748.018 9.9961C748.018 15.5083 744.071 19.9775 739.204 19.9775C739.201 19.9775 739.197 19.9766 739.194 19.9766V0.0156268C739.197 0.0156227 739.201 0.0156269 739.204 0.0156268Z" fill="#E09297"/>
<path d="M730.4 -1.92974e-07C725.523 -8.63972e-08 721.57 3.9531 721.57 8.8295L721.57 20L729.233 20C734.755 20 739.231 15.5234 739.231 10.0013L739.231 8.83187C739.231 3.95416 735.277 -2.99579e-07 730.4 -1.92974e-07Z" fill="#E09297"/>
<path fill-rule="evenodd" clip-rule="evenodd" d="M638.157 0.0156268C643.025 0.0156268 646.971 4.484 646.972 9.9961C646.972 15.5083 643.025 19.9775 638.157 19.9775C638.154 19.9775 638.151 19.9766 638.147 19.9766V0.0156268C638.151 0.0156227 638.154 0.0156269 638.157 0.0156268Z" fill="#5285D1"/>
<path d="M629.353 -1.92974e-07C624.476 -8.63972e-08 620.523 3.9531 620.523 8.8295L620.523 20L628.186 20C633.708 20 638.185 15.5234 638.185 10.0013L638.185 8.83187C638.185 3.95416 634.231 -2.99579e-07 629.353 -1.92974e-07Z" fill="#5285D1"/>
<path fill-rule="evenodd" clip-rule="evenodd" d="M810.235 0.0156268C815.103 0.0156268 819.05 4.484 819.05 9.9961C819.05 15.5083 815.103 19.9775 810.235 19.9775C810.232 19.9775 810.229 19.9766 810.226 19.9766V0.0156268C810.229 0.0156227 810.232 0.0156269 810.235 0.0156268Z" fill="#2A8851"/>
<path d="M801.431 -1.92974e-07C796.555 -8.63972e-08 792.602 3.9531 792.602 8.8295L792.602 20L800.264 20C805.786 20 810.263 15.5234 810.263 10.0013L810.263 8.83187C810.263 3.95416 806.309 -2.99579e-07 801.431 -1.92974e-07Z" fill="#2A8851"/>
<path fill-rule="evenodd" clip-rule="evenodd" d="M843.923 0.0156268C848.79 0.0156268 852.737 4.484 852.737 9.9961C852.737 15.5083 848.791 19.9775 843.923 19.9775C843.92 19.9775 843.916 19.9766 843.913 19.9766V0.0156268C843.916 0.0156227 843.92 0.0156269 843.923 0.0156268Z" fill="#E46159"/>
<path d="M835.119 -1.92974e-07C830.242 -8.63972e-08 826.289 3.9531 826.289 8.8295L826.289 20L833.952 20C839.474 20 843.95 15.5234 843.95 10.0013L843.95 8.83187C843.95 3.95416 839.996 -2.99579e-07 835.119 -1.92974e-07Z" fill="#E46159"/>
<path fill-rule="evenodd" clip-rule="evenodd" d="M877.61 0.0156268C882.478 0.0156268 886.424 4.484 886.425 9.9961C886.425 15.5083 882.478 19.9775 877.61 19.9775C877.607 19.9775 877.604 19.9766 877.6 19.9766V0.0156268C877.604 0.0156227 877.607 0.0156269 877.61 0.0156268Z" fill="#E09297"/>
<path d="M868.798 -1.92974e-07C863.922 -8.63972e-08 859.969 3.9531 859.969 8.8295L859.969 20L867.631 20C873.153 20 877.63 15.5234 877.63 10.0013L877.63 8.83187C877.63 3.95416 873.676 -2.99579e-07 868.798 -1.92974e-07Z" fill="#E09297"/>
<path fill-rule="evenodd" clip-rule="evenodd" d="M776.563 0.0156268C781.431 0.0156268 785.378 4.484 785.378 9.9961C785.378 15.5083 781.431 19.9775 776.563 19.9775C776.56 19.9775 776.557 19.9766 776.554 19.9766V0.0156268C776.557 0.0156227 776.56 0.0156269 776.563 0.0156268Z" fill="#5285D1"/>
<path d="M767.751 -1.92974e-07C762.875 -8.63972e-08 758.922 3.9531 758.922 8.8295L758.922 20L766.585 20C772.107 20 776.583 15.5234 776.583 10.0013L776.583 8.83187C776.583 3.95416 772.629 -2.99579e-07 767.751 -1.92974e-07Z" fill="#5285D1"/>
<path fill-rule="evenodd" clip-rule="evenodd" d="M948.642 0.0156268C953.509 0.0156268 957.456 4.484 957.456 9.9961C957.456 15.5083 953.509 19.9775 948.642 19.9775C948.638 19.9775 948.635 19.9766 948.632 19.9766V0.0156268C948.635 0.0156227 948.638 0.0156269 948.642 0.0156268Z" fill="#2A8851"/>
<path d="M939.829 -1.92974e-07C934.953 -8.63972e-08 931 3.9531 931 8.8295L931 20L938.663 20C944.185 20 948.661 15.5234 948.661 10.0013L948.661 8.83187C948.661 3.95416 944.707 -2.99579e-07 939.829 -1.92974e-07Z" fill="#2A8851"/>
<path fill-rule="evenodd" clip-rule="evenodd" d="M982.329 0.0156268C987.197 0.0156268 991.143 4.484 991.144 9.9961C991.144 15.5083 987.197 19.9775 982.329 19.9775C982.326 19.9775 982.323 19.9766 982.319 19.9766V0.0156268C982.323 0.0156227 982.326 0.0156269 982.329 0.0156268Z" fill="#E46159"/>
<path d="M973.517 -1.92974e-07C968.641 -8.63972e-08 964.688 3.9531 964.688 8.8295L964.688 20L972.35 20C977.872 20 982.349 15.5234 982.349 10.0013L982.349 8.83187C982.349 3.95416 978.395 -2.99579e-07 973.517 -1.92974e-07Z" fill="#E46159"/>
<path fill-rule="evenodd" clip-rule="evenodd" d="M1016 0.0156268C1020.87 0.0156268 1024.82 4.484 1024.82 9.9961C1024.82 15.5083 1020.87 19.9775 1016 19.9775C1016 19.9775 1015.99 19.9766 1015.99 19.9766V0.0156268C1015.99 0.0156227 1016 0.0156269 1016 0.0156268Z" fill="#E09297"/>
<path d="M1007.2 -1.92974e-07C1002.32 -8.63972e-08 998.367 3.9531 998.367 8.8295L998.367 20L1006.03 20C1011.55 20 1016.03 15.5234 1016.03 10.0013L1016.03 8.83187C1016.03 3.95416 1012.07 -2.99579e-07 1007.2 -1.92974e-07Z" fill="#E09297"/>
<path fill-rule="evenodd" clip-rule="evenodd" d="M914.954 0.0156268C919.822 0.0156268 923.768 4.484 923.769 9.9961C923.769 15.5083 919.822 19.9775 914.954 19.9775C914.951 19.9775 914.948 19.9766 914.944 19.9766V0.0156268C914.948 0.0156227 914.951 0.0156269 914.954 0.0156268Z" fill="#5285D1"/>
<path d="M906.15 -1.92974e-07C901.273 -8.63972e-08 897.32 3.9531 897.32 8.8295L897.32 20L904.983 20C910.505 20 914.982 15.5234 914.982 10.0013L914.982 8.83187C914.982 3.95416 911.028 -2.99579e-07 906.15 -1.92974e-07Z" fill="#5285D1"/>
<path fill-rule="evenodd" clip-rule="evenodd" d="M1087.02 0.0156268C1091.89 0.0156268 1095.84 4.484 1095.84 9.9961C1095.84 15.5083 1091.89 19.9775 1087.02 19.9775C1087.02 19.9775 1087.02 19.9766 1087.01 19.9766V0.0156268C1087.02 0.0156227 1087.02 0.0156269 1087.02 0.0156268Z" fill="#2A8851"/>
<path d="M1078.22 -1.92974e-07C1073.34 -8.63972e-08 1069.39 3.9531 1069.39 8.8295L1069.39 20L1077.05 20C1082.58 20 1087.05 15.5234 1087.05 10.0013L1087.05 8.83187C1087.05 3.95416 1083.1 -2.99579e-07 1078.22 -1.92974e-07Z" fill="#2A8851"/>
<path fill-rule="evenodd" clip-rule="evenodd" d="M1120.71 0.0156268C1125.58 0.0156268 1129.53 4.484 1129.53 9.9961C1129.53 15.5083 1125.58 19.9775 1120.71 19.9775C1120.71 19.9775 1120.71 19.9766 1120.7 19.9766V0.0156268C1120.71 0.0156227 1120.71 0.0156269 1120.71 0.0156268Z" fill="#E46159"/>
<path d="M1111.91 -1.92974e-07C1107.03 -8.63972e-08 1103.08 3.9531 1103.08 8.8295L1103.08 20L1110.74 20C1116.26 20 1120.74 15.5234 1120.74 10.0013L1120.74 8.83187C1120.74 3.95416 1116.79 -2.99579e-07 1111.91 -1.92974e-07Z" fill="#E46159"/>
<path fill-rule="evenodd" clip-rule="evenodd" d="M1154.4 0.0156268C1159.27 0.0156268 1163.21 4.484 1163.21 9.9961C1163.21 15.5083 1159.27 19.9775 1154.4 19.9775C1154.4 19.9775 1154.39 19.9766 1154.39 19.9766V0.0156268C1154.39 0.0156227 1154.4 0.0156269 1154.4 0.0156268Z" fill="#E09297"/>
<path d="M1145.59 -1.92974e-07C1140.71 -8.63972e-08 1136.76 3.9531 1136.76 8.8295L1136.76 20L1144.42 20C1149.94 20 1154.42 15.5234 1154.42 10.0013L1154.42 8.83187C1154.42 3.95416 1150.46 -2.99579e-07 1145.59 -1.92974e-07Z" fill="#E09297"/>
<path fill-rule="evenodd" clip-rule="evenodd" d="M1053.35 0.0156268C1058.22 0.0156268 1062.17 4.484 1062.17 9.9961C1062.17 15.5083 1058.22 19.9775 1053.35 19.9775C1053.35 19.9775 1053.35 19.9766 1053.34 19.9766V0.0156268C1053.35 0.0156227 1053.35 0.0156269 1053.35 0.0156268Z" fill="#5285D1"/>
<path d="M1044.54 -1.92974e-07C1039.66 -8.63972e-08 1035.71 3.9531 1035.71 8.8295L1035.71 20L1043.37 20C1048.9 20 1053.37 15.5234 1053.37 10.0013L1053.37 8.83187C1053.37 3.95416 1049.42 -2.99579e-07 1044.54 -1.92974e-07Z" fill="#5285D1"/>
<path fill-rule="evenodd" clip-rule="evenodd" d="M1225.43 0.0156268C1230.3 0.0156268 1234.24 4.484 1234.25 9.9961C1234.25 15.5083 1230.3 19.9775 1225.43 19.9775C1225.43 19.9775 1225.42 19.9766 1225.42 19.9766V0.0156268C1225.42 0.0156227 1225.43 0.0156269 1225.43 0.0156268Z" fill="#2A8851"/>
<path d="M1216.62 -1.92974e-07C1211.74 -8.63972e-08 1207.79 3.9531 1207.79 8.8295L1207.79 20L1215.45 20C1220.97 20 1225.45 15.5234 1225.45 10.0013L1225.45 8.83187C1225.45 3.95416 1221.5 -2.99579e-07 1216.62 -1.92974e-07Z" fill="#2A8851"/>
<path fill-rule="evenodd" clip-rule="evenodd" d="M1259.12 0.0156268C1263.99 0.0156268 1267.93 4.484 1267.93 9.9961C1267.93 15.5083 1263.99 19.9775 1259.12 19.9775C1259.11 19.9775 1259.11 19.9766 1259.11 19.9766V0.0156268C1259.11 0.0156227 1259.11 0.0156269 1259.12 0.0156268Z" fill="#E46159"/>
<path d="M1250.31 -1.92974e-07C1245.43 -8.63972e-08 1241.48 3.9531 1241.48 8.8295L1241.48 20L1249.14 20C1254.66 20 1259.14 15.5234 1259.14 10.0013L1259.14 8.83187C1259.14 3.95416 1255.18 -2.99579e-07 1250.31 -1.92974e-07Z" fill="#E46159"/>
<path fill-rule="evenodd" clip-rule="evenodd" d="M1292.79 0.0156268C1297.66 0.0156268 1301.6 4.484 1301.6 9.9961C1301.6 15.5083 1297.66 19.9775 1292.79 19.9775C1292.79 19.9775 1292.78 19.9766 1292.78 19.9766V0.0156268C1292.78 0.0156227 1292.79 0.0156269 1292.79 0.0156268Z" fill="#E09297"/>
<path d="M1283.99 -1.92974e-07C1279.11 -8.63972e-08 1275.16 3.9531 1275.16 8.8295L1275.16 20L1282.82 20C1288.34 20 1292.82 15.5234 1292.82 10.0013L1292.82 8.83187C1292.82 3.95416 1288.86 -2.99579e-07 1283.99 -1.92974e-07Z" fill="#E09297"/>
<path fill-rule="evenodd" clip-rule="evenodd" d="M1191.74 0.0156268C1196.61 0.0156268 1200.56 4.484 1200.56 9.9961C1200.56 15.5083 1196.61 19.9775 1191.74 19.9775C1191.74 19.9775 1191.74 19.9766 1191.73 19.9766V0.0156268C1191.74 0.0156227 1191.74 0.0156269 1191.74 0.0156268Z" fill="#5285D1"/>
<path d="M1182.94 -1.92974e-07C1178.06 -8.63972e-08 1174.11 3.9531 1174.11 8.8295L1174.11 20L1181.77 20C1187.29 20 1191.77 15.5234 1191.77 10.0013L1191.77 8.83187C1191.77 3.95416 1187.82 -2.99579e-07 1182.94 -1.92974e-07Z" fill="#5285D1"/>
<path fill-rule="evenodd" clip-rule="evenodd" d="M1363.82 0.0156268C1368.69 0.0156268 1372.64 4.484 1372.64 9.9961C1372.64 15.5083 1368.69 19.9775 1363.82 19.9775C1363.82 19.9775 1363.81 19.9766 1363.81 19.9766V0.0156268C1363.81 0.0156227 1363.82 0.0156269 1363.82 0.0156268Z" fill="#2A8851"/>
<path d="M1355.02 -1.92974e-07C1350.14 -8.63972e-08 1346.19 3.9531 1346.19 8.8295L1346.19 20L1353.85 20C1359.37 20 1363.85 15.5234 1363.85 10.0013L1363.85 8.83187C1363.85 3.95416 1359.89 -2.99579e-07 1355.02 -1.92974e-07Z" fill="#2A8851"/>
<path fill-rule="evenodd" clip-rule="evenodd" d="M1397.51 0.0156268C1402.38 0.0156268 1406.32 4.484 1406.32 9.9961C1406.32 15.5083 1402.38 19.9775 1397.51 19.9775C1397.51 19.9775 1397.5 19.9766 1397.5 19.9766V0.0156268C1397.5 0.0156227 1397.51 0.0156269 1397.51 0.0156268Z" fill="#E46159"/>
<path d="M1388.7 -1.92974e-07C1383.83 -8.63972e-08 1379.88 3.9531 1379.88 8.8295L1379.88 20L1387.54 20C1393.06 20 1397.54 15.5234 1397.54 10.0013L1397.54 8.83187C1397.54 3.95416 1393.58 -2.99579e-07 1388.7 -1.92974e-07Z" fill="#E46159"/>
<path fill-rule="evenodd" clip-rule="evenodd" d="M1431.2 0.0156268C1436.06 0.0156268 1440.01 4.484 1440.01 9.9961C1440.01 15.5083 1436.06 19.9775 1431.2 19.9775C1431.19 19.9775 1431.19 19.9766 1431.19 19.9766V0.0156268C1431.19 0.0156227 1431.19 0.0156269 1431.2 0.0156268Z" fill="#E09297"/>
<path d="M1422.38 -1.92974e-07C1417.51 -8.63972e-08 1413.55 3.9531 1413.55 8.8295L1413.55 20L1421.22 20C1426.74 20 1431.22 15.5234 1431.22 10.0013L1431.22 8.83187C1431.22 3.95416 1427.26 -2.99579e-07 1422.38 -1.92974e-07Z" fill="#E09297"/>
<path fill-rule="evenodd" clip-rule="evenodd" d="M1330.15 0.0156268C1335.02 0.0156268 1338.96 4.484 1338.96 9.9961C1338.96 15.5083 1335.02 19.9775 1330.15 19.9775C1330.15 19.9775 1330.14 19.9766 1330.14 19.9766V0.0156268C1330.14 0.0156227 1330.15 0.0156269 1330.15 0.0156268Z" fill="#5285D1"/>
<path d="M1321.34 -1.92974e-07C1316.46 -8.63972e-08 1312.51 3.9531 1312.51 8.8295L1312.51 20L1320.17 20C1325.69 20 1330.17 15.5234 1330.17 10.0013L1330.17 8.83187C1330.17 3.95416 1326.22 -2.99579e-07 1321.34 -1.92974e-07Z" fill="#5285D1"/>
</svg>
